HIERARCHY
ROOT Hips
{
	OFFSET 0.000000 0.000000 0.000000 
	CHANNELS 6 Xposition Yposition Zposition Zrotation Yrotation Xrotation
	JOINT LeftUpLeg
	{
		OFFSET 1.363060 -1.794630 0.839290 
		CHANNELS 3 Zrotation Yrotation Xrotation
		JOINT LeftLeg
		{
			OFFSET 2.448110 -6.726130 0.000000 
			CHANNELS 3 Zrotation Yrotation Xrotation
			JOINT LeftFoot
			{
				OFFSET 2.562200 -7.039590 0.000000 
				CHANNELS 3 Zrotation Yrotation Xrotation
				JOINT LeftToeBase
				{
					OFFSET 0.157640 -0.433110 2.322550 
					CHANNELS 3 Zrotation Yrotation Xrotation
					End Site
					{
						OFFSET 0.000000 0.000000 0.000000 
					}
				}
			}
		}
	}
	JOINT RightUpLeg
	{
		OFFSET -1.305520 -1.794630 0.839290 
		CHANNELS 3 Zrotation Yrotation Xrotation
		JOINT RightLeg
		{
			OFFSET -2.542530 -6.985550 0.000000 
			CHANNELS 3 Zrotation Yrotation Xrotation
			JOINT RightFoot
			{
				OFFSET -2.568260 -7.056230 0.000000 
				CHANNELS 3 Zrotation Yrotation Xrotation
				JOINT RightToeBase
				{
					OFFSET -0.164730 -0.452590 2.363150 
					CHANNELS 3 Zrotation Yrotation Xrotation
					End Site
					{
						OFFSET 0.000000 0.000000 0.000000 
					}
				}
			}
		}
	}
	JOINT Spine
	{
		OFFSET 0.028270 2.035590 -0.193380 
		CHANNELS 3 Zrotation Yrotation Xrotation
		JOINT Spine1
		{
			OFFSET 0.056720 2.048850 -0.042750 
			CHANNELS 3 Zrotation Yrotation Xrotation
			JOINT Neck1
			{
				OFFSET -0.054170 1.746240 0.172020 
				CHANNELS 3 Zrotation Yrotation Xrotation
				JOINT Head
				{
					OFFSET 0.104070 1.761360 -0.123970 
					CHANNELS 3 Zrotation Yrotation Xrotation
					End Site
					{
						OFFSET 0.000000 0.000000 0.000000 
					}
				}
			}
			JOINT LeftArm
			{
				OFFSET 3.362410 1.200890 -0.311210 
				CHANNELS 3 Zrotation Yrotation Xrotation
				JOINT LeftForeArm
				{
					OFFSET 4.983000 -0.000000 -0.000000 
					CHANNELS 3 Zrotation Yrotation Xrotation
					JOINT LeftHand
					{
						OFFSET 3.483560 -0.000000 -0.000000 
						CHANNELS 3 Zrotation Yrotation Xrotation
						JOINT LeftHandIndex1
						{
							OFFSET 0.715260 -0.000000 -0.000000 
							CHANNELS 3 Zrotation Yrotation Xrotation
							End Site
							{
								OFFSET 0.000000 0.000000 0.000000 
							}
						}
					}
				}
			}
			JOINT RightArm
			{
				OFFSET -3.136600 1.374050 -0.404650 
				CHANNELS 3 Zrotation Yrotation Xrotation
				JOINT RightForeArm
				{
					OFFSET -5.241900 -0.000000 -0.000000 
					CHANNELS 3 Zrotation Yrotation Xrotation
					JOINT RightHand
					{
						OFFSET -3.444170 -0.000000 -0.000000 
						CHANNELS 3 Zrotation Yrotation Xrotation
						JOINT RightHandIndex1
						{
							OFFSET -0.622530 -0.000000 -0.000000 
							CHANNELS 3 Zrotation Yrotation Xrotation
							End Site
							{
								OFFSET 0.000000 0.000000 0.000000 
							}
						}
					}
				}
			}
		}
	}
}
MOTION
Frames: 18
Frame Time: 0.041667
15.564481 17.242642 5.269309 52.921836 -88.666780 -42.954358 -6.982849 13.681591 -44.086121 11.397295 17.462787 60.338872 7.044510 -13.952445 4.314419 0.304100 -3.545700 -9.801800 5.472916 -1.145330 -40.806508 -11.002427 -17.763016 60.000524 -4.772850 6.056290 1.546708 -0.780900 5.641900 -15.748800 0.459947 -1.254341 -2.097230 -0.427007 -0.876542 -2.771904 9.434498 -7.522956 6.392050 3.559300 -3.312900 5.477200 -73.383206 2.891506 2.963703 16.964423 -23.637371 -6.127528 -2.142743 -3.682625 16.010071 -7.125000 0.000000 0.000000 67.785901 -4.260294 2.122423 -16.647293 25.640988 -7.393131 1.990710 -3.619208 16.583500 7.125000 0.000000 0.000000 
15.570947 17.174209 5.278577 52.298583 -88.717580 -42.468889 -6.962026 13.708925 -44.556429 11.842343 17.644358 61.589577 7.001611 -14.237280 4.024132 0.417800 -4.149000 -11.496300 5.481691 -0.797564 -41.379076 -11.435860 -17.970731 61.278052 -4.772275 6.240307 1.329441 -0.745000 5.513700 -15.379600 0.525413 -1.272492 -2.098211 -0.112926 -0.898378 -2.894867 9.471931 -7.550806 6.246756 3.594200 -3.327300 5.467300 -73.343217 3.080863 2.867836 17.122625 -23.851346 -6.245158 -2.184753 -3.700252 15.726357 -7.125000 0.000000 0.000000 66.973639 -4.329582 2.361002 -16.660716 25.706979 -7.433259 2.034054 -3.568638 15.797277 7.125000 0.000000 0.000000 
15.585172 17.070429 5.294096 54.248858 -88.736155 -44.466396 -7.026255 13.654910 -45.199726 12.350405 17.835208 63.082602 7.068741 -15.140543 3.958451 0.377100 -3.943700 -10.918400 5.486413 -0.814213 -42.179423 -12.058105 -18.245214 63.033384 -4.907676 6.720500 0.739504 -0.807500 5.734800 -16.016900 0.553745 -1.333548 -2.135941 0.006644 -0.921501 -3.200170 9.557715 -7.534811 6.011500 3.703100 -3.332300 5.343000 -73.333593 3.434748 2.584911 17.306948 -24.097470 -6.377219 -2.245356 -3.724426 15.676396 -7.125000 0.000000 0.000000 66.183935 -4.412344 2.645087 -16.563636 25.643774 -7.393329 2.124940 -3.449477 15.148747 7.125000 0.000000 0.000000 
15.598643 16.957272 5.308752 61.299830 -88.507340 -51.553615 -7.280504 13.491581 -45.797250 12.807282 17.991015 64.587143 7.260738 -16.951287 4.496240 0.059200 -1.569900 -4.318500 5.228820 -0.975432 -43.065985 -12.686086 -18.519463 64.738238 -4.756391 6.466896 -0.030179 -1.238000 7.055500 -19.879900 0.482042 -1.345591 -2.145209 -0.190287 -0.920211 -3.393407 9.693934 -7.678384 5.708360 3.813200 -3.403300 5.199100 -72.870312 3.542529 2.794174 17.373420 -24.209429 -6.440458 -2.262043 -3.749708 15.463144 -7.125000 0.000000 0.000000 66.027969 -4.613540 2.266604 -16.685754 25.812522 -7.499906 2.151249 -3.386605 15.074877 7.125000 0.000000 0.000000 
15.606187 16.846164 5.321253 68.277086 -88.259620 -58.653847 -7.499558 13.331770 -46.271666 13.424287 18.169921 66.210448 7.141168 -16.609192 3.041764 0.178600 -2.722000 -7.505600 4.813018 -0.874680 -43.777717 -13.343018 -18.793235 66.527572 -4.871902 6.861758 -0.711038 -1.467200 7.654800 -21.670300 0.429842 -1.308571 -2.127315 -0.227616 -0.905685 -3.490280 9.818015 -7.820808 5.427996 3.913300 -3.472700 5.076700 -72.355070 3.702482 3.443477 17.459997 -24.377216 -6.533674 -2.165926 -3.793354 14.718738 -7.125000 0.000000 0.000000 65.794993 -4.784773 1.676722 -16.858948 26.053665 -7.662823 2.090263 -3.409079 15.310049 7.125000 0.000000 0.000000 
15.619119 16.723632 5.331168 68.539501 -88.331294 -59.058677 -7.364417 13.165159 -46.746285 14.062928 18.362087 67.837843 7.024989 -16.223724 1.565069 0.430100 -4.208900 -11.665000 4.681673 -0.434252 -44.434084 -13.985048 -19.023435 68.352977 -5.197785 7.852286 -1.163093 -1.228100 7.028300 -19.799100 0.454158 -1.216850 -2.103611 -0.120696 -0.869473 -3.556174 9.827294 -7.997460 5.180011 3.918100 -3.561100 4.990500 -72.088440 3.876675 4.009315 17.644629 -24.640129 -6.683094 -2.084889 -3.845293 14.168508 -7.125000 0.000000 0.000000 65.467620 -4.919320 1.001235 -17.000377 26.252064 -7.805565 2.027576 -3.477777 15.645566 7.125000 0.000000 0.000000 
15.640672 16.590754 5.340867 61.757572 -88.485982 -52.355907 -7.098570 12.909272 -47.303400 14.671112 18.551189 69.441812 6.997401 -16.418471 0.564674 0.634600 -5.097100 -14.185600 4.804034 -0.192602 -45.272005 -14.593193 -19.200283 70.119416 -5.133249 7.864321 -1.714659 -1.299100 7.220900 -20.371600 0.504000 -1.295190 -2.108995 -0.036593 -0.902666 -3.732568 9.854168 -8.037926 4.943194 3.946700 -3.584100 4.900000 -72.015261 3.925697 3.692159 17.747749 -24.758041 -6.760857 -2.040750 -3.853682 14.334053 -7.125000 0.000000 0.000000 65.067944 -5.056630 0.782171 -17.140380 26.438053 -7.932460 2.029864 -3.474460 15.636401 7.125000 0.000000 0.000000 
15.656945 16.463264 5.354985 58.561297 -88.660581 -49.177172 -6.856637 12.745878 -47.888090 15.268168 18.711951 71.030773 7.086070 -17.256453 -0.122422 0.593300 -4.931200 -13.712300 4.897079 -0.018236 -46.197160 -15.198589 -19.371044 71.878194 -5.021877 7.735598 -2.293930 -1.572100 7.911400 -22.445200 0.552834 -1.395360 -2.118382 0.017329 -0.947606 -3.891488 9.929556 -7.921201 4.659525 4.011400 -3.532800 4.726900 -71.967354 3.953220 2.935491 17.774101 -24.792846 -6.791272 -1.973144 -3.781614 14.798384 -7.125000 0.000000 0.000000 64.211257 -5.001997 1.060913 -17.055495 26.391960 -7.911306 2.083299 -3.428639 15.384450 7.125000 0.000000 0.000000 
15.668800 16.340086 5.369533 57.687083 -88.957608 -48.344666 -6.525050 12.624579 -48.450564 15.899720 18.862626 72.695030 7.110635 -17.794763 -0.951283 0.535700 -4.689600 -13.025300 4.940641 0.377037 -47.016826 -15.803388 -19.534858 73.633275 -5.345099 8.791989 -2.556534 -1.355200 7.369100 -20.813700 0.555704 -1.287169 -2.091960 -0.128451 -0.898845 -3.872215 10.031659 -7.991423 4.440245 4.042600 -3.558400 4.640900 -71.559924 3.806167 2.609307 17.768640 -24.801312 -6.806527 -1.942820 -3.685910 15.237730 -7.125000 0.000000 0.000000 63.608130 -4.791271 0.879240 -16.843191 26.180086 -7.799059 2.105276 -3.476826 15.265501 7.125000 0.000000 0.000000 
15.683025 16.213782 5.385914 49.257205 -89.230835 -40.022036 -6.157045 12.437855 -49.031135 16.541322 19.026487 74.429116 7.028382 -17.820429 -1.877677 0.596700 -4.945300 -13.752700 5.047969 0.660804 -47.737012 -16.370593 -19.646465 75.307448 -5.427711 9.223413 -2.827273 -1.354500 7.367200 -20.807900 0.548915 -1.152746 -2.076340 -0.330685 -0.825982 -3.949845 10.096468 -8.312524 4.257994 4.029400 -3.703100 4.648900 -71.019261 3.618393 2.654873 17.737231 -24.766838 -6.798824 -1.965495 -3.652258 15.430773 -7.125000 0.000000 0.000000 63.435459 -4.837868 0.293979 -16.937119 26.275874 -7.880262 2.139661 -3.378055 15.336902 7.125000 0.000000 0.000000 
15.697035 16.084029 5.399385 44.660533 -89.321462 -35.588992 -5.933222 12.319112 -49.640547 17.165256 19.157051 76.163912 7.006123 -18.304956 -2.525410 0.544700 -4.728500 -13.135700 5.005539 0.825256 -48.438931 -16.950948 -19.754757 77.007617 -5.184969 8.679822 -3.431531 -1.846700 8.539100 -24.363900 0.557597 -1.058827 -2.075505 -0.365594 -0.779466 -4.153601 10.068512 -8.644624 4.011202 3.968500 -3.868000 4.583300 -70.643729 3.638625 2.992391 17.757040 -24.805138 -6.823477 -2.039115 -3.651551 15.359184 -7.125000 0.000000 0.000000 63.326675 -5.161229 -0.356780 -17.261596 26.636993 -8.119316 2.209397 -3.238629 15.510492 7.125000 0.000000 0.000000 
15.707273 15.956863 5.404774 56.445885 -89.034952 -47.548595 -6.030236 12.104590 -50.143317 17.727427 19.202064 77.844727 7.014373 -19.272007 -2.760096 0.367300 -3.893100 -10.776100 4.449740 0.953673 -49.165592 -17.591050 -19.916524 78.775433 -5.310099 9.140841 -3.922909 -1.985800 8.836500 -25.285200 0.541488 -1.164765 -2.067302 -0.161422 -0.846523 -4.294824 10.201934 -8.708645 3.792257 4.100800 -3.903400 4.475800 -70.351398 3.889694 3.082510 17.820056 -24.937628 -6.893691 -2.048070 -3.605800 15.168630 -7.125000 0.000000 0.000000 63.071448 -5.197416 -0.781548 -17.296319 26.692379 -8.169258 2.209729 -3.339870 15.635013 7.125000 0.000000 0.000000 
15.715032 15.833685 5.411024 65.809994 -88.852056 -57.006465 -6.113759 11.975996 -50.669846 18.249998 19.240577 79.421589 6.954427 -19.803338 -3.052708 0.320700 -3.640400 -10.067000 3.972477 1.140179 -49.940971 -18.195880 -20.046600 80.448052 -5.629092 10.216796 -4.189299 -1.812300 8.463700 -24.131700 0.526431 -1.283250 -2.050041 0.104910 -0.919093 -4.310126 10.552232 -8.762825 3.645535 4.437600 -3.916900 4.486400 -69.977152 4.119261 3.003182 17.883847 -25.082678 -6.977610 -1.960507 -3.566471 14.927143 -7.125000 0.000000 0.000000 62.483617 -4.942562 -0.888116 -17.119115 26.522658 -8.091522 2.127843 -3.390269 15.517946 7.125000 0.000000 0.000000 
15.726887 15.675589 5.421478 73.772011 -89.020355 -64.956103 -6.014620 12.286794 -51.571247 18.925468 19.296146 81.268153 6.874212 -19.637355 -4.190054 0.592900 -4.929800 -13.708400 3.947790 1.422480 -51.035089 -18.828858 -20.145921 82.302065 -5.672927 10.495370 -4.738664 -1.940900 8.741800 -24.991100 0.586956 -1.225858 -2.038928 0.192262 -0.914340 -4.320956 10.422885 -8.638887 3.461403 4.213000 -3.862800 4.309800 -69.716951 4.242107 2.986780 17.954982 -25.230127 -7.068321 -1.906325 -3.590353 14.833071 -7.125000 0.000000 0.000000 61.809160 -4.736868 -1.189933 -17.005718 26.419022 -8.062157 2.009729 -3.413935 15.534299 7.125000 0.000000 0.000000 
15.737125 15.571917 5.435811 68.975673 -89.154657 -60.148419 -5.732912 11.903767 -52.031642 19.455085 19.348529 82.801507 6.724435 -18.845936 -5.353556 0.973300 -6.280600 -17.600900 3.570197 3.284583 -51.140134 -19.257505 -20.184854 83.717622 -4.905661 8.299688 -5.709351 -2.458400 9.761900 -28.209000 0.634861 -1.229080 -2.022477 0.242056 -0.916000 -4.363631 10.364368 -8.514824 3.220227 4.147700 -3.815100 4.099800 -69.557948 4.283739 3.022444 18.042684 -25.360915 -7.147974 -1.916496 -3.643861 14.841900 -7.125000 0.000000 0.000000 61.277761 -4.513243 -1.742089 -16.821893 26.223902 -7.964147 2.037428 -3.623987 15.689650 7.125000 0.000000 0.000000 
15.750380 15.394531 5.447450 50.990570 -89.285690 -42.388448 -5.518192 12.033888 -52.917099 20.131744 19.428471 84.783057 6.671842 -19.479463 -5.789584 1.095700 -6.651800 -18.687900 3.609518 2.974414 -51.934752 -19.865909 -20.189830 85.535840 -4.764073 7.968318 -6.311960 -2.868600 10.479200 -30.542800 0.626132 -1.197327 -1.976546 0.117325 -0.875280 -4.331392 10.353571 -8.723686 3.101601 4.087500 -3.914700 4.071700 -68.951402 4.157616 3.589102 18.062445 -25.416780 -7.182908 -2.009832 -3.693353 14.529536 -7.125000 0.000000 0.000000 61.084272 -4.406644 -2.482314 -16.746390 26.129101 -7.925926 2.096998 -3.743633 15.635741 7.125000 0.000000 0.000000 
15.764605 15.264994 5.453592 52.924627 -89.281878 -44.646234 -5.374346 12.149455 -53.381643 20.702435 19.437827 86.469937 6.624757 -19.932196 -6.239009 1.200300 -6.951200 -19.570900 3.363767 3.120731 -52.475944 -20.422174 -20.222645 87.158854 -4.927195 8.537825 -6.593682 -2.831900 10.417900 -30.340800 0.635885 -1.182386 -1.946830 0.232947 -0.881717 -4.452532 10.331180 -8.851345 2.986335 4.044600 -3.983000 4.014200 -68.450906 4.223753 3.871921 18.038074 -25.446726 -7.199887 -2.052835 -3.677418 14.237702 -7.125000 0.000000 0.000000 60.763140 -4.434921 -2.889966 -16.832183 26.231309 -8.018474 2.024504 -3.617056 15.708255 7.125000 0.000000 0.000000 
15.777861 15.155178 5.467387 59.939226 -89.270104 -51.912107 -5.270959 12.363912 -53.838684 21.246517 19.417811 88.076234 6.609550 -20.813541 -6.481032 1.056200 -6.534600 -18.343800 3.028720 3.217622 -53.165029 -21.009034 -20.256060 88.807892 -5.386353 10.041761 -6.716715 -2.492900 9.825000 -28.411800 0.691305 -1.305721 -1.944239 0.505230 -0.960851 -4.665246 10.303283 -8.726353 2.819118 4.013500 -3.936900 3.857300 -68.361851 4.447792 3.382118 18.040275 -25.498186 -7.234034 -2.012207 -3.636623 14.386450 -7.125000 0.000000 0.000000 60.130375 -4.333836 -2.618597 -16.879859 26.288650 -8.074229 2.015985 -3.448060 15.569328 7.125000 0.000000 0.000000 
